<?xml version="1.0" encoding="UTF-8"?>
<!DOCTYPE svg PUBLIC "-//W3C//DTD SVG 1.1//EN" "http://www.w3.org/Graphics/SVG/1.1/DTD/svg11.dtd">
<!-- Creator: CorelDRAW 2020 (64-Bit) -->
<svg xmlns="http://www.w3.org/2000/svg" xml:space="preserve" width="214mm" height="127.806mm" version="1.1" style="shape-rendering:geometricPrecision; text-rendering:geometricPrecision; image-rendering:optimizeQuality; fill-rule:evenodd; clip-rule:evenodd"
viewBox="0 0 21400 12780.6"
 xmlns:xlink="http://www.w3.org/1999/xlink"
 xmlns:xodm="http://www.corel.com/coreldraw/odm/2003">
 <defs>
  <style type="text/css">
   <![CDATA[
    .fil0 {fill:none}
    .fil7 {fill:white}
    .fil2 {fill:#323232;fill-rule:nonzero}
    .fil6 {fill:white;fill-rule:nonzero}
    .fil3 {fill:url(#id0)}
    .fil1 {fill:url(#id1)}
    .fil4 {fill:url(#id2)}
    .fil5 {fill:url(#id3)}
   ]]>
  </style>
  <linearGradient id="id0" gradientUnits="userSpaceOnUse" x1="1077.61" y1="1542.34" x2="3044.76" y2="5453.86">
   <stop offset="0" style="stop-opacity:1; stop-color:#533700"/>
   <stop offset="0.478431" style="stop-opacity:1; stop-color:#915C06"/>
   <stop offset="1" style="stop-opacity:1; stop-color:#CF820C"/>
  </linearGradient>
  <linearGradient id="id1" gradientUnits="userSpaceOnUse" xlink:href="#id0" x1="25999.73" y1="5861.93" x2="-3337.29" y2="12550.6">
  </linearGradient>
  <linearGradient id="id2" gradientUnits="userSpaceOnUse" xlink:href="#id0" x1="2794.19" y1="1994.73" x2="2697.13" y2="5504.35">
  </linearGradient>
  <linearGradient id="id3" gradientUnits="userSpaceOnUse" xlink:href="#id0" x1="4152.8" y1="2446.3" x2="2648.92" y2="5176.59">
  </linearGradient>
 </defs>
 <g id="Слой_x0020_1">
  <metadata id="CorelCorpID_0Corel-Layer"/>
  <rect class="fil0" y="-0.02" width="21400" height="6412.27"/>
  <rect class="fil1" y="6368.32" width="21400" height="6412.27"/>
  <g id="_2519955806816">
   <path class="fil2" d="M4956.6 2114.54l881.08 0 0 201.16 -630.01 0 0 224.56 302.53 0c132.03,0 232.61,27.55 301.75,82.65 69.14,55.1 103.71,134.63 103.71,238.59 0,109.17 -38.47,193.89 -115.41,254.19 -76.93,60.3 -185.57,90.45 -325.92,90.45l-517.73 0 0 -1091.6zm503.7 904.47c64.45,0 113.84,-12.74 148.14,-38.21 34.32,-25.47 51.47,-62.64 51.47,-111.5 0,-95.65 -66.54,-143.47 -199.61,-143.47l-252.63 0 0 293.18 252.63 0zm1492.38 -15.6l0 202.73 -845.21 0 0 -1091.6 824.94 0 0 202.72 -573.88 0 0 237.03 506.82 0 0 196.5 -506.82 0 0 252.62 594.15 0zm1177.37 -888.87l0 1091.6 -249.51 0 0 -885.76 -374.26 0 -7.8 227.68c-5.2,154.9 -17.67,280.43 -37.43,376.6 -19.75,96.17 -52.76,169.98 -99.02,221.44 -46.26,51.46 -110.98,77.19 -194.15,77.19 -34.31,0 -75.89,-5.72 -124.76,-17.15l15.6 -213.64c13.51,4.15 28.59,6.23 45.23,6.23 60.29,0 102.39,-35.61 126.31,-106.82 23.91,-71.21 38.99,-182.71 45.22,-334.5l15.6 -442.87 838.97 0zm1012.08 857.68l-506.82 0 -96.69 233.92 -258.86 0 486.54 -1091.6 249.51 0 488.1 1091.6 -265.1 0 -96.68 -233.92zm-79.53 -191.81l-173.1 -417.93 -173.1 417.93 346.2 0zm1355.14 -460.03l-519.29 0 1.56 885.76 -251.07 0 0 -1091.6 770.36 0 -1.56 205.84zm628.45 -205.84c96.69,0 180.64,16.11 251.86,48.34 71.21,32.22 126.05,77.97 164.51,137.23 38.47,59.26 57.7,129.43 57.7,210.52 0,80.05 -19.23,149.97 -57.7,209.74 -38.46,59.78 -93.3,105.53 -164.51,137.23 -71.22,31.72 -155.17,47.57 -251.86,47.57l-219.88 0 0 300.97 -252.62 0 0 -1091.6 472.5 0zm-14.03 584.78c75.89,0 133.59,-16.37 173.1,-49.12 39.5,-32.75 59.26,-79.27 59.26,-139.57 0,-61.34 -19.76,-108.38 -59.26,-141.13 -39.51,-32.74 -97.21,-49.12 -173.1,-49.12l-205.85 0 0 378.94 205.85 0zm1191.41 525.53c-113.32,0 -215.47,-24.43 -306.43,-73.29 -90.97,-48.86 -162.18,-116.18 -213.64,-201.95 -51.46,-85.77 -77.19,-182.19 -77.19,-289.27 0,-107.09 25.73,-203.51 77.19,-289.28 51.46,-85.77 122.67,-153.08 213.64,-201.95 90.96,-48.86 193.11,-73.29 306.43,-73.29 113.32,0 215.2,24.43 305.65,73.29 90.44,48.87 161.66,116.18 213.64,201.95 51.98,85.77 77.97,182.19 77.97,289.28 0,107.08 -25.99,203.5 -77.97,289.27 -51.98,85.77 -123.2,153.09 -213.64,201.95 -90.45,48.86 -192.33,73.29 -305.65,73.29zm0 -215.2c64.45,0 122.68,-14.81 174.66,-44.45 51.98,-29.62 92.78,-70.95 122.41,-123.97 29.63,-53.02 44.44,-113.32 44.44,-180.89 0,-67.58 -14.81,-127.88 -44.44,-180.9 -29.63,-53.02 -70.43,-94.34 -122.41,-123.98 -51.98,-29.62 -110.21,-44.44 -174.66,-44.44 -64.46,0 -122.68,14.82 -174.66,44.44 -51.98,29.64 -92.78,70.96 -122.42,123.98 -29.62,53.02 -44.44,113.32 -44.44,180.9 0,67.57 14.82,127.87 44.44,180.89 29.64,53.02 70.44,94.35 122.42,123.97 51.98,29.64 110.2,44.45 174.66,44.45zm792.19 -895.11l881.08 0 0 201.16 -630.01 0 0 224.56 302.53 0c132.03,0 232.61,27.55 301.75,82.65 69.13,55.1 103.71,134.63 103.71,238.59 0,109.17 -38.47,193.89 -115.41,254.19 -76.93,60.3 -185.57,90.45 -325.92,90.45l-517.73 0 0 -1091.6zm503.7 904.47c64.45,0 113.84,-12.74 148.14,-38.21 34.31,-25.47 51.47,-62.64 51.47,-111.5 0,-95.65 -66.54,-143.47 -199.61,-143.47l-252.63 0 0 293.18 252.63 0zm1376.98 -46.79l-506.82 0 -96.69 233.92 -258.86 0 486.55 -1091.6 249.5 0 488.11 1091.6 -265.11 0 -96.68 -233.92zm-79.53 -191.81l-173.1 -417.93 -173.1 417.93 346.2 0zm1568.79 -665.87l0 1091.6 -249.51 0 0 -885.76 -374.26 0 -7.8 227.68c-5.2,154.9 -17.68,280.43 -37.43,376.6 -19.75,96.17 -52.76,169.98 -99.03,221.44 -46.26,51.46 -110.97,77.19 -194.14,77.19 -34.31,0 -75.89,-5.72 -124.76,-17.15l15.6 -213.64c13.51,4.15 28.59,6.23 45.22,6.23 60.3,0 102.4,-35.61 126.31,-106.82 23.91,-71.21 38.99,-182.71 45.23,-334.5l15.59 -442.87 838.98 0zm1107.2 205.84l-349.32 0 0 885.76 -249.51 0 0 -885.76 -347.75 0 0 -205.84 946.58 0 0 205.84zm159.06 -205.84l251.07 0 0 711.1 520.84 -711.1 237.04 0 0 1091.6 -249.51 0 0 -709.55 -520.85 709.55 -238.59 0 0 -1091.6zm1702.9 651.84l-174.66 0 0 439.76 -251.07 0 0 -1091.6 251.07 0 0 441.31 180.9 0 286.93 -441.31 266.66 0 -357.11 527.08 368.03 564.52 -286.94 0 -283.81 -439.76z"/>
   <g>
    <path class="fil3" d="M2247.08 2792.55c-237.59,-218.74 -511.46,-341.27 -774.71,-349.71 -154.8,448.06 -99.4,1036.61 184.69,1543.4 261.02,465.62 653.31,752.03 1035.93,805.78 -153.43,-144.76 -275.05,-333.84 -361.42,-541.39 -110.08,-264.53 -163.52,-558.82 -163.52,-852.86 0,-205.01 25.99,-410.14 79.03,-605.22z"/>
    <path class="fil4" d="M3283.67 2790.94c-95.96,-338.61 -269.81,-619.45 -489.49,-796.21 -341.13,274.49 -571.82,799.94 -571.82,1403.04 0,578.57 212.32,1085.63 530.76,1368.26 -153.62,-510.85 -42.22,-1098.86 209.99,-1547.93 88.32,-157.25 196.9,-302.75 320.56,-427.16z"/>
    <path class="fil5" d="M3013.56 3257.91c285.42,-506.05 725.81,-799.43 1139.24,-811.61 153.63,448.46 96.7,1036.86 -188.72,1542.91 -285.42,506.05 -725.81,799.43 -1139.24,811.61 -153.63,-448.46 -96.69,-1036.86 188.72,-1542.91z"/>
   </g>
   <path class="fil2" d="M5150.65 4113.16c-46.11,0 -87.71,-10.02 -124.77,-30.06 -37.07,-20.04 -66.16,-47.84 -87.29,-83.41 -21.12,-35.56 -31.68,-75.32 -31.68,-119.28 0,-43.97 10.56,-83.73 31.68,-119.29 21.13,-35.56 50.22,-63.36 87.29,-83.4 37.06,-20.04 78.66,-30.07 124.77,-30.07 46.13,0 87.72,10.03 124.79,30.07 37.07,20.04 66.16,47.73 87.28,83.08 21.12,35.34 31.68,75.21 31.68,119.61 0,44.39 -10.56,84.26 -31.68,119.61 -21.12,35.34 -50.21,63.04 -87.28,83.08 -37.07,20.04 -78.66,30.06 -124.79,30.06zm0 -73.7c30.18,0 57.33,-6.79 81.47,-20.37 24.14,-13.58 43.1,-32.54 56.9,-56.89 13.79,-24.36 20.69,-51.62 20.69,-81.79 0,-30.18 -6.9,-57.43 -20.69,-81.79 -13.8,-24.35 -32.76,-43.32 -56.9,-56.9 -24.14,-13.57 -51.29,-20.36 -81.47,-20.36 -30.16,0 -57.32,6.79 -81.46,20.36 -24.13,13.58 -43.1,32.55 -56.89,56.9 -13.8,24.36 -20.69,51.61 -20.69,81.79 0,30.17 6.89,57.43 20.69,81.79 13.79,24.35 32.76,43.31 56.89,56.89 24.14,13.58 51.3,20.37 81.46,20.37zm337.5 -385.34l352.37 0 0 69.18 -269.61 0 0 111.2 133.83 0c54.31,0 95.58,11.32 123.82,33.95 28.23,22.62 42.34,55.28 42.34,97.95 0,44.82 -15.52,79.41 -46.55,103.77 -31.03,24.35 -75.21,36.53 -132.54,36.53l-203.66 0 0 -452.58zm199.13 387.92c32.33,0 56.9,-6.25 73.71,-18.75 16.81,-12.5 25.22,-30.6 25.22,-54.31 0,-46.54 -32.98,-69.82 -98.93,-69.82l-116.37 0 0 142.88 116.37 0zm857.32 -387.92l0 452.58 -581.24 0 0 -452.58 82.75 0 0 381.46 166.81 0 0 -381.46 82.76 0 0 381.46 166.16 0 0 -381.46 82.76 0zm65.3 381.46l0 167.45 -77.58 0 0 -96.33 -72.42 0 0 -71.12 150 0zm420.25 0.64l0 70.48 -339.43 0 0 -452.58 330.38 0 0 70.47 -246.34 0 0 117.67 218.54 0 0 69.18 -218.54 0 0 124.78 255.39 0zm299.99 76.94c-45.69,0 -86.96,-10.02 -123.81,-30.06 -36.86,-20.04 -65.73,-47.74 -86.64,-83.08 -20.9,-35.35 -31.35,-75.22 -31.35,-119.61 0,-44.4 10.56,-84.27 31.68,-119.61 21.12,-35.35 50.11,-63.04 86.96,-83.08 36.85,-20.04 78.12,-30.07 123.81,-30.07 37.07,0 70.9,6.47 101.51,19.4 30.6,12.93 56.46,31.68 77.58,56.25l-54.31 51.07c-32.76,-35.34 -73.06,-53.01 -120.9,-53.01 -31.04,0 -58.84,6.79 -83.41,20.36 -24.57,13.58 -43.75,32.44 -57.54,56.58 -13.79,24.13 -20.68,51.5 -20.68,82.11 0,30.6 6.89,57.97 20.68,82.11 13.79,24.14 32.97,42.99 57.54,56.57 24.57,13.58 52.37,20.37 83.41,20.37 47.84,0 88.14,-17.89 120.9,-53.67l54.31 51.72c-21.12,24.57 -47.09,43.33 -77.91,56.26 -30.81,12.93 -64.76,19.39 -101.83,19.39zm581.24 -387.92l-150 0 0 381.46 -83.4 0 0 -381.46 -149.35 0 0 -71.12 382.75 0 0 71.12zm370.47 146.12c28.88,7.75 50.86,21.01 65.94,39.76 15.09,18.75 22.63,42.13 22.63,70.15 0,39.65 -14.65,70.47 -43.96,92.45 -29.32,21.98 -71.77,32.98 -127.37,32.98l-214.65 0 0 -452.58 202.36 0c50.87,0 90.52,10.13 118.96,30.39 28.46,20.26 42.68,48.92 42.68,85.99 0,23.7 -5.71,44.18 -17.13,61.42 -11.43,17.24 -27.91,30.39 -49.46,39.44zm-214.66 -23.93l112.5 0c27.16,0 47.85,-5.38 62.07,-16.16 14.22,-10.78 21.33,-26.72 21.33,-47.84 0,-21.13 -7.11,-37.18 -21.33,-48.17 -14.22,-10.99 -34.91,-16.49 -62.07,-16.49l-112.5 0 0 128.66zm129.31 194.61c59.48,0 89.23,-22.41 89.23,-67.24 0,-43.96 -29.75,-65.95 -89.23,-65.95l-129.31 0 0 133.19 129.31 0zm479.08 71.12c-46.11,0 -87.71,-10.02 -124.77,-30.06 -37.07,-20.04 -66.17,-47.84 -87.29,-83.41 -21.12,-35.56 -31.68,-75.32 -31.68,-119.28 0,-43.97 10.56,-83.73 31.68,-119.29 21.12,-35.56 50.22,-63.36 87.29,-83.4 37.06,-20.04 78.66,-30.07 124.77,-30.07 46.13,0 87.72,10.03 124.79,30.07 37.07,20.04 66.16,47.73 87.28,83.08 21.12,35.34 31.68,75.21 31.68,119.61 0,44.39 -10.56,84.26 -31.68,119.61 -21.12,35.34 -50.21,63.04 -87.28,83.08 -37.07,20.04 -78.66,30.06 -124.79,30.06zm0 -73.7c30.18,0 57.33,-6.79 81.47,-20.37 24.14,-13.58 43.1,-32.54 56.9,-56.89 13.79,-24.36 20.69,-51.62 20.69,-81.79 0,-30.18 -6.9,-57.43 -20.69,-81.79 -13.8,-24.35 -32.76,-43.32 -56.9,-56.9 -24.14,-13.57 -51.29,-20.36 -81.47,-20.36 -30.16,0 -57.32,6.79 -81.46,20.36 -24.13,13.58 -43.1,32.55 -56.89,56.9 -13.8,24.36 -20.69,51.61 -20.69,81.79 0,30.17 6.89,57.43 20.69,81.79 13.79,24.35 32.76,43.31 56.89,56.89 24.14,13.58 51.3,20.37 81.46,20.37zm723.49 73.7c-45.69,0 -86.96,-10.02 -123.82,-30.06 -36.85,-20.04 -65.73,-47.74 -86.63,-83.08 -20.91,-35.35 -31.36,-75.22 -31.36,-119.61 0,-44.4 10.56,-84.27 31.68,-119.61 21.12,-35.35 50.11,-63.04 86.96,-83.08 36.85,-20.04 78.13,-30.07 123.81,-30.07 37.07,0 70.91,6.47 101.51,19.4 30.6,12.93 56.46,31.68 77.58,56.25l-54.31 51.07c-32.75,-35.34 -73.06,-53.01 -120.9,-53.01 -31.03,0 -58.83,6.79 -83.4,20.36 -24.57,13.58 -43.75,32.44 -57.55,56.58 -13.79,24.13 -20.68,51.5 -20.68,82.11 0,30.6 6.89,57.97 20.68,82.11 13.8,24.14 32.98,42.99 57.55,56.57 24.57,13.58 52.37,20.37 83.4,20.37 47.84,0 88.15,-17.89 120.9,-53.67l54.31 51.72c-21.12,24.57 -47.09,43.33 -77.91,56.26 -30.81,12.93 -64.75,19.39 -101.82,19.39zm645.89 0c-46.12,0 -87.71,-10.02 -124.78,-30.06 -37.07,-20.04 -66.16,-47.84 -87.28,-83.41 -21.12,-35.56 -31.68,-75.32 -31.68,-119.28 0,-43.97 10.56,-83.73 31.68,-119.29 21.12,-35.56 50.21,-63.36 87.28,-83.4 37.07,-20.04 78.66,-30.07 124.78,-30.07 46.12,0 87.72,10.03 124.78,30.07 37.07,20.04 66.17,47.73 87.29,83.08 21.12,35.34 31.68,75.21 31.68,119.61 0,44.39 -10.56,84.26 -31.68,119.61 -21.12,35.34 -50.22,63.04 -87.29,83.08 -37.06,20.04 -78.66,30.06 -124.78,30.06zm0 -73.7c30.17,0 57.33,-6.79 81.47,-20.37 24.13,-13.58 43.1,-32.54 56.89,-56.89 13.8,-24.36 20.69,-51.62 20.69,-81.79 0,-30.18 -6.89,-57.43 -20.69,-81.79 -13.79,-24.35 -32.76,-43.32 -56.89,-56.9 -24.14,-13.57 -51.3,-20.36 -81.47,-20.36 -30.17,0 -57.32,6.79 -81.46,20.36 -24.14,13.58 -43.1,32.55 -56.9,56.9 -13.79,24.36 -20.69,51.61 -20.69,81.79 0,30.17 6.9,57.43 20.69,81.79 13.8,24.35 32.76,43.31 56.9,56.89 24.14,13.58 51.29,20.37 81.46,20.37zm643.95 -314.22l-224.34 0 0.64 381.46 -82.75 0 0 -452.58 307.1 0 -0.65 71.12zm257.33 -71.12c39.22,0 73.38,6.47 102.47,19.4 29.1,12.92 51.4,31.46 66.92,55.6 15.52,24.13 23.28,52.8 23.28,85.98 0,32.77 -7.76,61.32 -23.28,85.67 -15.52,24.36 -37.82,43 -66.92,55.93 -29.09,12.93 -63.25,19.39 -102.47,19.39l-102.16 0 0 130.61 -84.04 0 0 -452.58 186.2 0zm-3.88 250.86c36.63,0 64.44,-7.76 83.4,-23.28 18.97,-15.52 28.45,-37.71 28.45,-66.6 0,-28.87 -9.48,-51.07 -28.45,-66.58 -18.96,-15.53 -46.77,-23.28 -83.4,-23.28l-98.28 0 0 179.74 98.28 0zm553.44 96.98l-226.29 0 -44.61 104.74 -86.64 0 203.66 -452.58 82.76 0 204.31 452.58 -87.93 0 -45.26 -104.74zm-27.8 -65.95l-85.35 -197.84 -84.7 197.84 170.05 0zm632.32 -281.89l0 452.58 -84.06 0 0 -193.97 -234.05 0 0 193.97 -84.04 0 0 -452.58 84.04 0 0 186.85 234.05 0 0 -186.85 84.06 0zm127.36 0l82.76 0 0 321.33 243.1 -321.33 78.22 0 0 452.58 -82.75 0 0 -320.69 -243.1 320.69 -78.23 0 0 -452.58zm870.89 0l0 452.58 -83.41 0 0 -170.69c-42.67,15.95 -83.18,23.92 -121.55,23.92 -57.75,0 -102.26,-13.9 -133.5,-41.7 -31.25,-27.8 -46.88,-67.78 -46.88,-119.93l0 -144.18 83.41 0 0 135.13c0,31.89 9.26,56.24 27.8,73.06 18.53,16.8 45.04,25.21 79.52,25.21 39.22,0 76.29,-7.98 111.2,-23.92l0 -209.48 83.41 0zm466.15 382.1l0 70.48 -339.43 0 0 -452.58 330.38 0 0 70.47 -246.33 0 0 117.67 218.53 0 0 69.18 -218.53 0 0 124.78 255.38 0zm495.9 -382.1l0 452.58 -84.05 0 0 -193.97 -234.05 0 0 193.97 -84.05 0 0 -452.58 84.05 0 0 186.85 234.05 0 0 -186.85 84.05 0zm528.87 0l0 452.58 -84.06 0 0 -193.97 -234.05 0 0 193.97 -84.04 0 0 -452.58 84.04 0 0 186.85 234.05 0 0 -186.85 84.06 0zm336.19 459.04c-46.12,0 -87.71,-10.02 -124.78,-30.06 -37.07,-20.04 -66.16,-47.84 -87.28,-83.41 -21.12,-35.56 -31.68,-75.32 -31.68,-119.28 0,-43.97 10.56,-83.73 31.68,-119.29 21.12,-35.56 50.21,-63.36 87.28,-83.4 37.07,-20.04 78.66,-30.07 124.78,-30.07 46.12,0 87.72,10.03 124.78,30.07 37.07,20.04 66.16,47.73 87.29,83.08 21.12,35.34 31.68,75.21 31.68,119.61 0,44.39 -10.56,84.26 -31.68,119.61 -21.13,35.34 -50.22,63.04 -87.29,83.08 -37.06,20.04 -78.66,30.06 -124.78,30.06zm0 -73.7c30.17,0 57.33,-6.79 81.47,-20.37 24.13,-13.58 43.1,-32.54 56.89,-56.89 13.8,-24.36 20.69,-51.62 20.69,-81.79 0,-30.18 -6.89,-57.43 -20.69,-81.79 -13.79,-24.35 -32.76,-43.32 -56.89,-56.9 -24.14,-13.57 -51.3,-20.36 -81.47,-20.36 -30.17,0 -57.32,6.79 -81.46,20.36 -24.14,13.58 -43.1,32.55 -56.9,56.9 -13.79,24.36 -20.69,51.61 -20.69,81.79 0,30.17 6.9,57.43 20.69,81.79 13.8,24.35 32.76,43.31 56.9,56.89 24.14,13.58 51.29,20.37 81.46,20.37zm337.5 -385.34l82.75 0 0 321.33 243.1 -321.33 78.23 0 0 452.58 -82.76 0 0 -320.69 -243.09 320.69 -78.23 0 0 -452.58zm201.07 -30.39c-38.79,0 -67.99,-7.97 -87.61,-23.92 -19.61,-15.95 -29.63,-39.23 -30.06,-69.83l58.84 0c0.42,15.95 5.6,28.24 15.51,36.86 9.91,8.62 24.35,12.93 43.32,12.93 18.54,0 33.08,-4.31 43.64,-12.93 10.56,-8.62 16.06,-20.91 16.49,-36.86l58.19 0c-0.43,30.17 -10.67,53.34 -30.71,69.51 -20.05,16.16 -49.25,24.24 -87.61,24.24zm-10313.6 1236.94c-46.11,0 -87.71,-10.02 -124.77,-30.06 -37.07,-20.04 -66.16,-47.84 -87.29,-83.41 -21.12,-35.56 -31.68,-75.32 -31.68,-119.28 0,-43.97 10.56,-83.73 31.68,-119.29 21.13,-35.56 50.22,-63.36 87.29,-83.41 37.06,-20.04 78.66,-30.06 124.77,-30.06 46.13,0 87.72,10.02 124.79,30.06 37.07,20.05 66.16,47.74 87.28,83.09 21.12,35.34 31.68,75.21 31.68,119.61 0,44.39 -10.56,84.26 -31.68,119.61 -21.12,35.34 -50.21,63.04 -87.28,83.08 -37.07,20.04 -78.66,30.06 -124.79,30.06zm0 -73.7c30.18,0 57.33,-6.79 81.47,-20.37 24.14,-13.58 43.1,-32.54 56.9,-56.89 13.79,-24.36 20.69,-51.62 20.69,-81.79 0,-30.18 -6.9,-57.44 -20.69,-81.79 -13.8,-24.36 -32.76,-43.32 -56.9,-56.9 -24.14,-13.57 -51.29,-20.36 -81.47,-20.36 -30.16,0 -57.32,6.79 -81.46,20.36 -24.13,13.58 -43.1,32.54 -56.89,56.9 -13.8,24.35 -20.69,51.61 -20.69,81.79 0,30.17 6.89,57.43 20.69,81.79 13.79,24.35 32.76,43.31 56.89,56.89 24.14,13.58 51.3,20.37 81.46,20.37zm658.83 -314.22l-150 0 0 381.46 -83.4 0 0 -381.46 -149.35 0 0 -71.12 382.75 0 0 71.12zm370.47 146.12c28.88,7.75 50.86,21.01 65.94,39.76 15.09,18.75 22.63,42.13 22.63,70.15 0,39.65 -14.65,70.47 -43.96,92.45 -29.31,21.98 -71.77,32.98 -127.37,32.98l-214.65 0 0 -452.58 202.36 0c50.87,0 90.52,10.13 118.97,30.39 28.45,20.26 42.67,48.91 42.67,85.99 0,23.7 -5.71,44.18 -17.13,61.42 -11.43,17.24 -27.91,30.38 -49.46,39.44zm-214.66 -23.93l112.5 0c27.16,0 47.85,-5.38 62.07,-16.16 14.22,-10.78 21.33,-26.72 21.33,-47.84 0,-21.13 -7.11,-37.18 -21.33,-48.17 -14.22,-10.99 -34.91,-16.49 -62.07,-16.49l-112.5 0 0 128.66zm129.31 194.61c59.48,0 89.23,-22.41 89.23,-67.24 0,-43.97 -29.75,-65.95 -89.23,-65.95l-129.31 0 0 133.19 129.31 0zm609.04 -5.82l0 70.48 -339.43 0 0 -452.58 330.38 0 0 70.47 -246.33 0 0 117.67 218.53 0 0 69.18 -218.53 0 0 124.78 255.38 0zm422.19 -310.98l-150 0 0 381.46 -83.4 0 0 -381.46 -149.35 0 0 -71.12 382.75 0 0 71.12zm274.13 387.92c-45.69,0 -86.95,-10.02 -123.81,-30.06 -36.85,-20.04 -65.73,-47.74 -86.64,-83.08 -20.9,-35.35 -31.35,-75.22 -31.35,-119.61 0,-44.4 10.56,-84.27 31.68,-119.61 21.12,-35.35 50.11,-63.04 86.96,-83.09 36.85,-20.04 78.12,-30.06 123.81,-30.06 37.07,0 70.9,6.47 101.51,19.4 30.6,12.93 56.46,31.68 77.58,56.25l-54.31 51.07c-32.76,-35.34 -73.06,-53.01 -120.9,-53.01 -31.04,0 -58.84,6.79 -83.41,20.36 -24.56,13.58 -43.75,32.44 -57.54,56.58 -13.79,24.13 -20.68,51.5 -20.68,82.11 0,30.6 6.89,57.97 20.68,82.11 13.79,24.13 32.98,42.99 57.54,56.57 24.57,13.58 52.37,20.37 83.41,20.37 47.84,0 88.14,-17.89 120.9,-53.67l54.31 51.72c-21.12,24.57 -47.09,43.33 -77.91,56.26 -30.81,12.93 -64.76,19.39 -101.83,19.39zm581.24 -387.92l-150 0 0 381.46 -83.4 0 0 -381.46 -149.35 0 0 -71.12 382.75 0 0 71.12zm370.47 146.12c28.88,7.75 50.86,21.01 65.94,39.76 15.09,18.75 22.63,42.13 22.63,70.15 0,39.65 -14.65,70.47 -43.96,92.45 -29.31,21.98 -71.77,32.98 -127.37,32.98l-214.65 0 0 -452.58 202.36 0c50.87,0 90.52,10.13 118.97,30.39 28.45,20.26 42.67,48.91 42.67,85.99 0,23.7 -5.71,44.18 -17.13,61.42 -11.43,17.24 -27.91,30.38 -49.46,39.44zm-214.66 -23.93l112.5 0c27.16,0 47.85,-5.38 62.07,-16.16 14.22,-10.78 21.33,-26.72 21.33,-47.84 0,-21.13 -7.11,-37.18 -21.33,-48.17 -14.22,-10.99 -34.91,-16.49 -62.07,-16.49l-112.5 0 0 128.66zm129.32 194.61c59.47,0 89.22,-22.41 89.22,-67.24 0,-43.97 -29.75,-65.95 -89.22,-65.95l-129.32 0 0 133.19 129.32 0zm609.03 -5.82l0 70.48 -339.43 0 0 -452.58 330.38 0 0 70.47 -246.33 0 0 117.67 218.53 0 0 69.18 -218.53 0 0 124.78 255.38 0zm495.9 -382.1l0 452.58 -84.05 0 0 -193.97 -234.05 0 0 193.97 -84.05 0 0 -452.58 84.05 0 0 186.85 234.05 0 0 -186.85 84.05 0zm528.87 0l0 452.58 -84.06 0 0 -193.97 -234.04 0 0 193.97 -84.05 0 0 -452.58 84.05 0 0 186.85 234.04 0 0 -186.85 84.06 0zm336.19 459.04c-46.12,0 -87.71,-10.02 -124.78,-30.06 -37.07,-20.04 -66.16,-47.84 -87.28,-83.41 -21.12,-35.56 -31.68,-75.32 -31.68,-119.28 0,-43.97 10.56,-83.73 31.68,-119.29 21.12,-35.56 50.21,-63.36 87.28,-83.41 37.07,-20.04 78.66,-30.06 124.78,-30.06 46.12,0 87.72,10.02 124.78,30.06 37.07,20.05 66.17,47.74 87.29,83.09 21.12,35.34 31.68,75.21 31.68,119.61 0,44.39 -10.56,84.26 -31.68,119.61 -21.12,35.34 -50.22,63.04 -87.29,83.08 -37.06,20.04 -78.66,30.06 -124.78,30.06zm0 -73.7c30.17,0 57.33,-6.79 81.47,-20.37 24.13,-13.58 43.1,-32.54 56.89,-56.89 13.8,-24.36 20.69,-51.62 20.69,-81.79 0,-30.18 -6.89,-57.44 -20.69,-81.79 -13.79,-24.36 -32.76,-43.32 -56.89,-56.9 -24.14,-13.57 -51.3,-20.36 -81.47,-20.36 -30.17,0 -57.32,6.79 -81.46,20.36 -24.14,13.58 -43.1,32.54 -56.9,56.9 -13.79,24.35 -20.69,51.61 -20.69,81.79 0,30.17 6.9,57.43 20.69,81.79 13.8,24.35 32.76,43.31 56.9,56.89 24.14,13.58 51.29,20.37 81.46,20.37zm545.03 73.7c-45.69,0 -86.95,-10.02 -123.81,-30.06 -36.85,-20.04 -65.73,-47.74 -86.63,-83.08 -20.91,-35.35 -31.36,-75.22 -31.36,-119.61 0,-44.4 10.56,-84.27 31.68,-119.61 21.12,-35.35 50.11,-63.04 86.96,-83.09 36.85,-20.04 78.12,-30.06 123.81,-30.06 37.07,0 70.9,6.47 101.51,19.4 30.6,12.93 56.46,31.68 77.58,56.25l-54.31 51.07c-32.75,-35.34 -73.06,-53.01 -120.9,-53.01 -31.04,0 -58.84,6.79 -83.4,20.36 -24.57,13.58 -43.75,32.44 -57.55,56.58 -13.79,24.13 -20.68,51.5 -20.68,82.11 0,30.6 6.89,57.97 20.68,82.11 13.8,24.13 32.98,42.99 57.55,56.57 24.56,13.58 52.36,20.37 83.4,20.37 47.84,0 88.15,-17.89 120.9,-53.67l54.31 51.72c-21.12,24.57 -47.09,43.33 -77.91,56.26 -30.81,12.93 -64.75,19.39 -101.83,19.39zm581.24 -387.92l-150 0 0 381.46 -83.4 0 0 -381.46 -149.35 0 0 -71.12 382.75 0 0 71.12zm281.24 82.11c54.31,0 96.02,12.17 125.11,36.53 29.1,24.35 43.64,60.45 43.64,108.29 0,50 -15.94,88.25 -47.84,114.76 -31.9,26.51 -76.72,39.77 -134.48,39.77l-194.61 0 0 -452.58 82.76 0 0 153.23 125.42 0zm-17.45 234.69c32.76,0 57.97,-7.54 75.64,-22.63 17.67,-15.08 26.51,-37.07 26.51,-65.94 0,-54.75 -34.05,-82.11 -102.15,-82.11l-107.97 0 0 170.68 107.97 0zm659.47 -394.39c44.39,0 84.37,10.02 119.93,30.06 35.56,20.05 63.47,47.74 83.73,83.09 20.26,35.34 30.39,75.21 30.39,119.61 0,44.39 -10.13,84.26 -30.39,119.61 -20.26,35.34 -48.17,63.04 -83.73,83.08 -35.56,20.04 -75.54,30.06 -119.93,30.06 -40.52,0 -77.48,-8.41 -110.88,-25.21 -33.41,-16.82 -60.78,-40.31 -82.12,-70.48 -21.33,-30.17 -34.58,-64.44 -39.76,-102.8l-71.12 0 0 192.03 -82.75 0 0 -452.58 82.75 0 0 185.55 72.42 0c6.03,-37.5 19.72,-70.79 41.05,-99.88 21.34,-29.1 48.49,-51.73 81.47,-67.9 32.97,-16.16 69.28,-24.24 108.94,-24.24zm0 391.81c28.01,0 53.45,-6.69 76.29,-20.05 22.85,-13.36 40.73,-32.11 53.66,-56.25 12.94,-24.13 19.4,-51.72 19.4,-82.75 0,-31.04 -6.46,-58.62 -19.4,-82.76 -12.93,-24.14 -30.81,-42.89 -53.66,-56.25 -22.84,-13.36 -48.28,-20.04 -76.29,-20.04 -28.02,0 -53.34,6.68 -75.97,20.04 -22.63,13.36 -40.52,32.11 -53.66,56.25 -13.15,24.14 -19.72,51.72 -19.72,82.76 0,31.03 6.57,58.62 19.72,82.75 13.14,24.14 31.03,42.89 53.66,56.25 22.63,13.36 47.95,20.05 75.97,20.05z"/>
  </g>
  <g id="_2519955806432">
   <path class="fil6" d="M4956.6 8059.55l881.08 0 0 201.16 -630.01 0 0 224.56 302.53 0c132.03,0 232.61,27.55 301.75,82.65 69.14,55.1 103.71,134.63 103.71,238.59 0,109.17 -38.47,193.89 -115.41,254.19 -76.93,60.3 -185.57,90.45 -325.92,90.45l-517.73 0 0 -1091.6zm503.7 904.47c64.45,0 113.84,-12.74 148.14,-38.21 34.32,-25.47 51.47,-62.64 51.47,-111.5 0,-95.65 -66.54,-143.47 -199.61,-143.47l-252.63 0 0 293.18 252.63 0zm1492.38 -15.6l0 202.73 -845.21 0 0 -1091.6 824.94 0 0 202.72 -573.88 0 0 237.03 506.82 0 0 196.5 -506.82 0 0 252.62 594.15 0zm1177.37 -888.87l0 1091.6 -249.51 0 0 -885.76 -374.26 0 -7.8 227.68c-5.2,154.9 -17.67,280.43 -37.43,376.6 -19.75,96.17 -52.76,169.98 -99.02,221.44 -46.26,51.46 -110.98,77.19 -194.15,77.19 -34.31,0 -75.89,-5.72 -124.76,-17.15l15.6 -213.64c13.51,4.15 28.59,6.23 45.23,6.23 60.29,0 102.39,-35.61 126.31,-106.82 23.91,-71.21 38.99,-182.71 45.22,-334.5l15.6 -442.87 838.97 0zm1012.08 857.68l-506.82 0 -96.69 233.92 -258.86 0 486.54 -1091.6 249.51 0 488.1 1091.6 -265.1 0 -96.68 -233.92zm-79.53 -191.81l-173.1 -417.93 -173.1 417.93 346.2 0zm1355.14 -460.03l-519.29 0 1.56 885.76 -251.07 0 0 -1091.6 770.36 0 -1.56 205.84zm628.45 -205.84c96.69,0 180.64,16.11 251.86,48.34 71.21,32.22 126.05,77.97 164.51,137.23 38.47,59.26 57.7,129.43 57.7,210.52 0,80.05 -19.23,149.97 -57.7,209.74 -38.46,59.78 -93.3,105.53 -164.51,137.23 -71.22,31.72 -155.17,47.57 -251.86,47.57l-219.88 0 0 300.97 -252.62 0 0 -1091.6 472.5 0zm-14.03 584.78c75.89,0 133.59,-16.37 173.1,-49.12 39.5,-32.75 59.26,-79.27 59.26,-139.57 0,-61.34 -19.76,-108.38 -59.26,-141.13 -39.51,-32.74 -97.21,-49.12 -173.1,-49.12l-205.85 0 0 378.94 205.85 0zm1191.41 525.53c-113.32,0 -215.47,-24.43 -306.43,-73.29 -90.97,-48.86 -162.18,-116.18 -213.64,-201.95 -51.46,-85.77 -77.19,-182.19 -77.19,-289.27 0,-107.09 25.73,-203.51 77.19,-289.28 51.46,-85.77 122.67,-153.08 213.64,-201.95 90.96,-48.86 193.11,-73.29 306.43,-73.29 113.32,0 215.2,24.43 305.65,73.29 90.44,48.87 161.66,116.18 213.64,201.95 51.98,85.77 77.97,182.19 77.97,289.28 0,107.08 -25.99,203.5 -77.97,289.27 -51.98,85.77 -123.2,153.09 -213.64,201.95 -90.45,48.86 -192.33,73.29 -305.65,73.29zm0 -215.2c64.45,0 122.68,-14.81 174.66,-44.45 51.98,-29.62 92.78,-70.95 122.41,-123.97 29.63,-53.02 44.44,-113.32 44.44,-180.89 0,-67.58 -14.81,-127.88 -44.44,-180.9 -29.63,-53.02 -70.43,-94.34 -122.41,-123.98 -51.98,-29.62 -110.21,-44.44 -174.66,-44.44 -64.46,0 -122.68,14.82 -174.66,44.44 -51.98,29.64 -92.78,70.96 -122.42,123.98 -29.62,53.02 -44.44,113.32 -44.44,180.9 0,67.57 14.82,127.87 44.44,180.89 29.64,53.02 70.44,94.35 122.42,123.97 51.98,29.64 110.2,44.45 174.66,44.45zm792.19 -895.11l881.08 0 0 201.16 -630.01 0 0 224.56 302.53 0c132.03,0 232.61,27.55 301.75,82.65 69.13,55.1 103.71,134.63 103.71,238.59 0,109.17 -38.47,193.89 -115.41,254.19 -76.93,60.3 -185.57,90.45 -325.92,90.45l-517.73 0 0 -1091.6zm503.7 904.47c64.45,0 113.84,-12.74 148.14,-38.21 34.31,-25.47 51.47,-62.64 51.47,-111.5 0,-95.65 -66.54,-143.47 -199.61,-143.47l-252.63 0 0 293.18 252.63 0zm1376.98 -46.79l-506.82 0 -96.69 233.92 -258.86 0 486.55 -1091.6 249.5 0 488.11 1091.6 -265.11 0 -96.68 -233.92zm-79.53 -191.81l-173.1 -417.93 -173.1 417.93 346.2 0zm1568.79 -665.87l0 1091.6 -249.51 0 0 -885.76 -374.26 0 -7.8 227.68c-5.2,154.9 -17.68,280.43 -37.43,376.6 -19.75,96.17 -52.76,169.98 -99.03,221.44 -46.26,51.46 -110.97,77.19 -194.14,77.19 -34.31,0 -75.89,-5.72 -124.76,-17.15l15.6 -213.64c13.51,4.15 28.59,6.23 45.22,6.23 60.3,0 102.4,-35.61 126.31,-106.82 23.91,-71.21 38.99,-182.71 45.23,-334.5l15.59 -442.87 838.98 0zm1107.2 205.84l-349.32 0 0 885.76 -249.51 0 0 -885.76 -347.75 0 0 -205.84 946.58 0 0 205.84zm159.06 -205.84l251.07 0 0 711.1 520.84 -711.1 237.04 0 0 1091.6 -249.51 0 0 -709.55 -520.85 709.55 -238.59 0 0 -1091.6zm1702.9 651.84l-174.66 0 0 439.76 -251.07 0 0 -1091.6 251.07 0 0 441.31 180.9 0 286.93 -441.31 266.66 0 -357.11 527.08 368.03 564.52 -286.94 0 -283.81 -439.76z"/>
   <g>
    <path class="fil7" d="M2247.08 8737.56c-237.59,-218.74 -511.46,-341.27 -774.71,-349.71 -154.8,448.06 -99.4,1036.61 184.69,1543.4 261.02,465.62 653.31,752.03 1035.93,805.78 -153.43,-144.76 -275.05,-333.84 -361.42,-541.39 -110.08,-264.53 -163.52,-558.82 -163.52,-852.86 0,-205.01 25.99,-410.14 79.03,-605.22z"/>
    <path class="fil7" d="M3283.67 8735.95c-95.96,-338.61 -269.81,-619.45 -489.49,-796.21 -341.13,274.49 -571.82,799.94 -571.82,1403.04 0,578.57 212.32,1085.63 530.76,1368.26 -153.62,-510.85 -42.22,-1098.86 209.99,-1547.93 88.32,-157.25 196.9,-302.75 320.56,-427.16z"/>
    <path class="fil7" d="M3013.56 9202.92c285.42,-506.05 725.81,-799.43 1139.24,-811.61 153.63,448.46 96.7,1036.86 -188.72,1542.91 -285.42,506.05 -725.81,799.43 -1139.24,811.61 -153.63,-448.46 -96.69,-1036.86 188.72,-1542.91z"/>
   </g>
   <path class="fil6" d="M5150.65 10058.17c-46.11,0 -87.71,-10.02 -124.77,-30.06 -37.07,-20.04 -66.16,-47.84 -87.29,-83.41 -21.12,-35.56 -31.68,-75.32 -31.68,-119.28 0,-43.97 10.56,-83.73 31.68,-119.29 21.13,-35.56 50.22,-63.36 87.29,-83.4 37.06,-20.04 78.66,-30.07 124.77,-30.07 46.13,0 87.72,10.03 124.79,30.07 37.07,20.04 66.16,47.73 87.28,83.08 21.12,35.34 31.68,75.21 31.68,119.61 0,44.39 -10.56,84.26 -31.68,119.61 -21.12,35.34 -50.21,63.04 -87.28,83.08 -37.07,20.04 -78.66,30.06 -124.79,30.06zm0 -73.7c30.18,0 57.33,-6.79 81.47,-20.37 24.14,-13.58 43.1,-32.54 56.9,-56.89 13.79,-24.36 20.69,-51.62 20.69,-81.79 0,-30.18 -6.9,-57.43 -20.69,-81.79 -13.8,-24.35 -32.76,-43.32 -56.9,-56.9 -24.14,-13.57 -51.29,-20.36 -81.47,-20.36 -30.16,0 -57.32,6.79 -81.46,20.36 -24.13,13.58 -43.1,32.55 -56.89,56.9 -13.8,24.36 -20.69,51.61 -20.69,81.79 0,30.17 6.89,57.43 20.69,81.79 13.79,24.35 32.76,43.31 56.89,56.89 24.14,13.58 51.3,20.37 81.46,20.37zm337.5 -385.34l352.37 0 0 69.18 -269.61 0 0 111.2 133.83 0c54.31,0 95.58,11.32 123.82,33.95 28.23,22.62 42.34,55.28 42.34,97.95 0,44.82 -15.52,79.41 -46.55,103.77 -31.03,24.35 -75.21,36.53 -132.54,36.53l-203.66 0 0 -452.58zm199.13 387.92c32.33,0 56.9,-6.25 73.71,-18.75 16.81,-12.5 25.22,-30.6 25.22,-54.31 0,-46.54 -32.98,-69.82 -98.93,-69.82l-116.37 0 0 142.88 116.37 0zm857.32 -387.92l0 452.58 -581.24 0 0 -452.58 82.75 0 0 381.46 166.81 0 0 -381.46 82.76 0 0 381.46 166.16 0 0 -381.46 82.76 0zm65.3 381.46l0 167.45 -77.58 0 0 -96.33 -72.42 0 0 -71.12 150 0zm420.25 0.64l0 70.48 -339.43 0 0 -452.58 330.38 0 0 70.47 -246.34 0 0 117.67 218.54 0 0 69.18 -218.54 0 0 124.78 255.39 0zm299.99 76.94c-45.69,0 -86.96,-10.02 -123.81,-30.06 -36.86,-20.04 -65.73,-47.74 -86.64,-83.08 -20.9,-35.35 -31.35,-75.22 -31.35,-119.61 0,-44.4 10.56,-84.27 31.68,-119.61 21.12,-35.35 50.11,-63.04 86.96,-83.08 36.85,-20.04 78.12,-30.07 123.81,-30.07 37.07,0 70.9,6.47 101.51,19.4 30.6,12.93 56.46,31.68 77.58,56.25l-54.31 51.07c-32.76,-35.34 -73.06,-53.01 -120.9,-53.01 -31.04,0 -58.84,6.79 -83.41,20.36 -24.57,13.58 -43.75,32.44 -57.54,56.58 -13.79,24.13 -20.68,51.5 -20.68,82.11 0,30.6 6.89,57.97 20.68,82.11 13.79,24.14 32.97,42.99 57.54,56.57 24.57,13.58 52.37,20.37 83.41,20.37 47.84,0 88.14,-17.89 120.9,-53.67l54.31 51.72c-21.12,24.57 -47.09,43.33 -77.91,56.26 -30.81,12.93 -64.76,19.39 -101.83,19.39zm581.24 -387.92l-150 0 0 381.46 -83.4 0 0 -381.46 -149.35 0 0 -71.12 382.75 0 0 71.12zm370.47 146.12c28.88,7.75 50.86,21.01 65.94,39.76 15.09,18.75 22.63,42.13 22.63,70.15 0,39.65 -14.65,70.47 -43.96,92.45 -29.32,21.98 -71.77,32.98 -127.37,32.98l-214.65 0 0 -452.58 202.36 0c50.87,0 90.52,10.13 118.96,30.39 28.46,20.26 42.68,48.92 42.68,85.99 0,23.7 -5.71,44.18 -17.13,61.42 -11.43,17.24 -27.91,30.39 -49.46,39.44zm-214.66 -23.93l112.5 0c27.16,0 47.85,-5.38 62.07,-16.16 14.22,-10.78 21.33,-26.72 21.33,-47.84 0,-21.13 -7.11,-37.18 -21.33,-48.17 -14.22,-10.99 -34.91,-16.49 -62.07,-16.49l-112.5 0 0 128.66zm129.31 194.61c59.48,0 89.23,-22.41 89.23,-67.24 0,-43.96 -29.75,-65.95 -89.23,-65.95l-129.31 0 0 133.19 129.31 0zm479.08 71.12c-46.11,0 -87.71,-10.02 -124.77,-30.06 -37.07,-20.04 -66.17,-47.84 -87.29,-83.41 -21.12,-35.56 -31.68,-75.32 -31.68,-119.28 0,-43.97 10.56,-83.73 31.68,-119.29 21.12,-35.56 50.22,-63.36 87.29,-83.4 37.06,-20.04 78.66,-30.07 124.77,-30.07 46.13,0 87.72,10.03 124.79,30.07 37.07,20.04 66.16,47.73 87.28,83.08 21.12,35.34 31.68,75.21 31.68,119.61 0,44.39 -10.56,84.26 -31.68,119.61 -21.12,35.34 -50.21,63.04 -87.28,83.08 -37.07,20.04 -78.66,30.06 -124.79,30.06zm0 -73.7c30.18,0 57.33,-6.79 81.47,-20.37 24.14,-13.58 43.1,-32.54 56.9,-56.89 13.79,-24.36 20.69,-51.62 20.69,-81.79 0,-30.18 -6.9,-57.43 -20.69,-81.79 -13.8,-24.35 -32.76,-43.32 -56.9,-56.9 -24.14,-13.57 -51.29,-20.36 -81.47,-20.36 -30.16,0 -57.32,6.79 -81.46,20.36 -24.13,13.58 -43.1,32.55 -56.89,56.9 -13.8,24.36 -20.69,51.61 -20.69,81.79 0,30.17 6.89,57.43 20.69,81.79 13.79,24.35 32.76,43.31 56.89,56.89 24.14,13.58 51.3,20.37 81.46,20.37zm723.49 73.7c-45.69,0 -86.96,-10.02 -123.82,-30.06 -36.85,-20.04 -65.73,-47.74 -86.63,-83.08 -20.91,-35.35 -31.36,-75.22 -31.36,-119.61 0,-44.4 10.56,-84.27 31.68,-119.61 21.12,-35.35 50.11,-63.04 86.96,-83.08 36.85,-20.04 78.13,-30.07 123.81,-30.07 37.07,0 70.91,6.47 101.51,19.4 30.6,12.93 56.46,31.68 77.58,56.25l-54.31 51.07c-32.75,-35.34 -73.06,-53.01 -120.9,-53.01 -31.03,0 -58.83,6.79 -83.4,20.36 -24.57,13.58 -43.75,32.44 -57.55,56.58 -13.79,24.13 -20.68,51.5 -20.68,82.11 0,30.6 6.89,57.97 20.68,82.11 13.8,24.14 32.98,42.99 57.55,56.57 24.57,13.58 52.37,20.37 83.4,20.37 47.84,0 88.15,-17.89 120.9,-53.67l54.31 51.72c-21.12,24.57 -47.09,43.33 -77.91,56.26 -30.81,12.93 -64.75,19.39 -101.82,19.39zm645.89 0c-46.12,0 -87.71,-10.02 -124.78,-30.06 -37.07,-20.04 -66.16,-47.84 -87.28,-83.41 -21.12,-35.56 -31.68,-75.32 -31.68,-119.28 0,-43.97 10.56,-83.73 31.68,-119.29 21.12,-35.56 50.21,-63.36 87.28,-83.4 37.07,-20.04 78.66,-30.07 124.78,-30.07 46.12,0 87.72,10.03 124.78,30.07 37.07,20.04 66.17,47.73 87.29,83.08 21.12,35.34 31.68,75.21 31.68,119.61 0,44.39 -10.56,84.26 -31.68,119.61 -21.12,35.34 -50.22,63.04 -87.29,83.08 -37.06,20.04 -78.66,30.06 -124.78,30.06zm0 -73.7c30.17,0 57.33,-6.79 81.47,-20.37 24.13,-13.58 43.1,-32.54 56.89,-56.89 13.8,-24.36 20.69,-51.62 20.69,-81.79 0,-30.18 -6.89,-57.43 -20.69,-81.79 -13.79,-24.35 -32.76,-43.32 -56.89,-56.9 -24.14,-13.57 -51.3,-20.36 -81.47,-20.36 -30.17,0 -57.32,6.79 -81.46,20.36 -24.14,13.58 -43.1,32.55 -56.9,56.9 -13.79,24.36 -20.69,51.61 -20.69,81.79 0,30.17 6.9,57.43 20.69,81.79 13.8,24.35 32.76,43.31 56.9,56.89 24.14,13.58 51.29,20.37 81.46,20.37zm643.95 -314.22l-224.34 0 0.64 381.46 -82.75 0 0 -452.58 307.1 0 -0.65 71.12zm257.33 -71.12c39.22,0 73.38,6.47 102.47,19.4 29.1,12.92 51.4,31.46 66.92,55.6 15.52,24.13 23.28,52.8 23.28,85.98 0,32.77 -7.76,61.32 -23.28,85.67 -15.52,24.36 -37.82,43 -66.92,55.93 -29.09,12.93 -63.25,19.39 -102.47,19.39l-102.16 0 0 130.61 -84.04 0 0 -452.58 186.2 0zm-3.88 250.86c36.63,0 64.44,-7.76 83.4,-23.28 18.97,-15.52 28.45,-37.71 28.45,-66.6 0,-28.87 -9.48,-51.07 -28.45,-66.58 -18.96,-15.53 -46.77,-23.28 -83.4,-23.28l-98.28 0 0 179.74 98.28 0zm553.44 96.98l-226.29 0 -44.61 104.74 -86.64 0 203.66 -452.58 82.76 0 204.31 452.58 -87.93 0 -45.26 -104.74zm-27.8 -65.95l-85.35 -197.84 -84.7 197.84 170.05 0zm632.32 -281.89l0 452.58 -84.06 0 0 -193.97 -234.05 0 0 193.97 -84.04 0 0 -452.58 84.04 0 0 186.85 234.05 0 0 -186.85 84.06 0zm127.36 0l82.76 0 0 321.33 243.1 -321.33 78.22 0 0 452.58 -82.75 0 0 -320.69 -243.1 320.69 -78.23 0 0 -452.58zm870.89 0l0 452.58 -83.41 0 0 -170.69c-42.67,15.95 -83.18,23.92 -121.55,23.92 -57.75,0 -102.26,-13.9 -133.5,-41.7 -31.25,-27.8 -46.88,-67.78 -46.88,-119.93l0 -144.18 83.41 0 0 135.13c0,31.89 9.26,56.24 27.8,73.06 18.53,16.8 45.04,25.21 79.52,25.21 39.22,0 76.29,-7.98 111.2,-23.92l0 -209.48 83.41 0zm466.15 382.1l0 70.48 -339.43 0 0 -452.58 330.38 0 0 70.47 -246.33 0 0 117.67 218.53 0 0 69.18 -218.53 0 0 124.78 255.38 0zm495.9 -382.1l0 452.58 -84.05 0 0 -193.97 -234.05 0 0 193.97 -84.05 0 0 -452.58 84.05 0 0 186.85 234.05 0 0 -186.85 84.05 0zm528.87 0l0 452.58 -84.06 0 0 -193.97 -234.05 0 0 193.97 -84.04 0 0 -452.58 84.04 0 0 186.85 234.05 0 0 -186.85 84.06 0zm336.19 459.04c-46.12,0 -87.71,-10.02 -124.78,-30.06 -37.07,-20.04 -66.16,-47.84 -87.28,-83.41 -21.12,-35.56 -31.68,-75.32 -31.68,-119.28 0,-43.97 10.56,-83.73 31.68,-119.29 21.12,-35.56 50.21,-63.36 87.28,-83.4 37.07,-20.04 78.66,-30.07 124.78,-30.07 46.12,0 87.72,10.03 124.78,30.07 37.07,20.04 66.16,47.73 87.29,83.08 21.12,35.34 31.68,75.21 31.68,119.61 0,44.39 -10.56,84.26 -31.68,119.61 -21.13,35.34 -50.22,63.04 -87.29,83.08 -37.06,20.04 -78.66,30.06 -124.78,30.06zm0 -73.7c30.17,0 57.33,-6.79 81.47,-20.37 24.13,-13.58 43.1,-32.54 56.89,-56.89 13.8,-24.36 20.69,-51.62 20.69,-81.79 0,-30.18 -6.89,-57.43 -20.69,-81.79 -13.79,-24.35 -32.76,-43.32 -56.89,-56.9 -24.14,-13.57 -51.3,-20.36 -81.47,-20.36 -30.17,0 -57.32,6.79 -81.46,20.36 -24.14,13.58 -43.1,32.55 -56.9,56.9 -13.79,24.36 -20.69,51.61 -20.69,81.79 0,30.17 6.9,57.43 20.69,81.79 13.8,24.35 32.76,43.31 56.9,56.89 24.14,13.58 51.29,20.37 81.46,20.37zm337.5 -385.34l82.75 0 0 321.33 243.1 -321.33 78.23 0 0 452.58 -82.76 0 0 -320.69 -243.09 320.69 -78.23 0 0 -452.58zm201.07 -30.39c-38.79,0 -67.99,-7.97 -87.61,-23.92 -19.61,-15.95 -29.63,-39.23 -30.06,-69.83l58.84 0c0.42,15.95 5.6,28.24 15.51,36.86 9.91,8.62 24.35,12.93 43.32,12.93 18.54,0 33.08,-4.31 43.64,-12.93 10.56,-8.62 16.06,-20.91 16.49,-36.86l58.19 0c-0.43,30.17 -10.67,53.34 -30.71,69.51 -20.05,16.16 -49.25,24.24 -87.61,24.24zm-10313.6 1236.94c-46.11,0 -87.71,-10.02 -124.77,-30.06 -37.07,-20.04 -66.16,-47.84 -87.29,-83.41 -21.12,-35.56 -31.68,-75.32 -31.68,-119.28 0,-43.97 10.56,-83.73 31.68,-119.29 21.13,-35.56 50.22,-63.36 87.29,-83.41 37.06,-20.04 78.66,-30.06 124.77,-30.06 46.13,0 87.72,10.02 124.79,30.06 37.07,20.05 66.16,47.74 87.28,83.09 21.12,35.34 31.68,75.21 31.68,119.61 0,44.39 -10.56,84.26 -31.68,119.61 -21.12,35.34 -50.21,63.04 -87.28,83.08 -37.07,20.04 -78.66,30.06 -124.79,30.06zm0 -73.7c30.18,0 57.33,-6.79 81.47,-20.37 24.14,-13.58 43.1,-32.54 56.9,-56.89 13.79,-24.36 20.69,-51.62 20.69,-81.79 0,-30.18 -6.9,-57.44 -20.69,-81.79 -13.8,-24.36 -32.76,-43.32 -56.9,-56.9 -24.14,-13.57 -51.29,-20.36 -81.47,-20.36 -30.16,0 -57.32,6.79 -81.46,20.36 -24.13,13.58 -43.1,32.54 -56.89,56.9 -13.8,24.35 -20.69,51.61 -20.69,81.79 0,30.17 6.89,57.43 20.69,81.79 13.79,24.35 32.76,43.31 56.89,56.89 24.14,13.58 51.3,20.37 81.46,20.37zm658.83 -314.22l-150 0 0 381.46 -83.4 0 0 -381.46 -149.35 0 0 -71.12 382.75 0 0 71.12zm370.47 146.12c28.88,7.75 50.86,21.01 65.94,39.76 15.09,18.75 22.63,42.13 22.63,70.15 0,39.65 -14.65,70.47 -43.96,92.45 -29.31,21.98 -71.77,32.98 -127.37,32.98l-214.65 0 0 -452.58 202.36 0c50.87,0 90.52,10.13 118.97,30.39 28.45,20.26 42.67,48.91 42.67,85.99 0,23.7 -5.71,44.18 -17.13,61.42 -11.43,17.24 -27.91,30.38 -49.46,39.44zm-214.66 -23.93l112.5 0c27.16,0 47.85,-5.38 62.07,-16.16 14.22,-10.78 21.33,-26.72 21.33,-47.84 0,-21.13 -7.11,-37.18 -21.33,-48.17 -14.22,-10.99 -34.91,-16.49 -62.07,-16.49l-112.5 0 0 128.66zm129.31 194.61c59.48,0 89.23,-22.41 89.23,-67.24 0,-43.97 -29.75,-65.95 -89.23,-65.95l-129.31 0 0 133.19 129.31 0zm609.04 -5.82l0 70.48 -339.43 0 0 -452.58 330.38 0 0 70.47 -246.33 0 0 117.67 218.53 0 0 69.18 -218.53 0 0 124.78 255.38 0zm422.19 -310.98l-150 0 0 381.46 -83.4 0 0 -381.46 -149.35 0 0 -71.12 382.75 0 0 71.12zm274.13 387.92c-45.69,0 -86.95,-10.02 -123.81,-30.06 -36.85,-20.04 -65.73,-47.74 -86.64,-83.08 -20.9,-35.35 -31.35,-75.22 -31.35,-119.61 0,-44.4 10.56,-84.27 31.68,-119.61 21.12,-35.35 50.11,-63.04 86.96,-83.09 36.85,-20.04 78.12,-30.06 123.81,-30.06 37.07,0 70.9,6.47 101.51,19.4 30.6,12.93 56.46,31.68 77.58,56.25l-54.31 51.07c-32.76,-35.34 -73.06,-53.01 -120.9,-53.01 -31.04,0 -58.84,6.79 -83.41,20.36 -24.56,13.58 -43.75,32.44 -57.54,56.58 -13.79,24.13 -20.68,51.5 -20.68,82.11 0,30.6 6.89,57.97 20.68,82.11 13.79,24.13 32.98,42.99 57.54,56.57 24.57,13.58 52.37,20.37 83.41,20.37 47.84,0 88.14,-17.89 120.9,-53.67l54.31 51.72c-21.12,24.57 -47.09,43.33 -77.91,56.26 -30.81,12.93 -64.76,19.39 -101.83,19.39zm581.24 -387.92l-150 0 0 381.46 -83.4 0 0 -381.46 -149.35 0 0 -71.12 382.75 0 0 71.12zm370.47 146.12c28.88,7.75 50.86,21.01 65.94,39.76 15.09,18.75 22.63,42.13 22.63,70.15 0,39.65 -14.65,70.47 -43.96,92.45 -29.31,21.98 -71.77,32.98 -127.37,32.98l-214.65 0 0 -452.58 202.36 0c50.87,0 90.52,10.13 118.97,30.39 28.45,20.26 42.67,48.91 42.67,85.99 0,23.7 -5.71,44.18 -17.13,61.42 -11.43,17.24 -27.91,30.38 -49.46,39.44zm-214.66 -23.93l112.5 0c27.16,0 47.85,-5.38 62.07,-16.16 14.22,-10.78 21.33,-26.72 21.33,-47.84 0,-21.13 -7.11,-37.18 -21.33,-48.17 -14.22,-10.99 -34.91,-16.49 -62.07,-16.49l-112.5 0 0 128.66zm129.32 194.61c59.47,0 89.22,-22.41 89.22,-67.24 0,-43.97 -29.75,-65.95 -89.22,-65.95l-129.32 0 0 133.19 129.32 0zm609.03 -5.82l0 70.48 -339.43 0 0 -452.58 330.38 0 0 70.47 -246.33 0 0 117.67 218.53 0 0 69.18 -218.53 0 0 124.78 255.38 0zm495.9 -382.1l0 452.58 -84.05 0 0 -193.97 -234.05 0 0 193.97 -84.05 0 0 -452.58 84.05 0 0 186.85 234.05 0 0 -186.85 84.05 0zm528.87 0l0 452.58 -84.06 0 0 -193.97 -234.04 0 0 193.97 -84.05 0 0 -452.58 84.05 0 0 186.85 234.04 0 0 -186.85 84.06 0zm336.19 459.04c-46.12,0 -87.71,-10.02 -124.78,-30.06 -37.07,-20.04 -66.16,-47.84 -87.28,-83.41 -21.12,-35.56 -31.68,-75.32 -31.68,-119.28 0,-43.97 10.56,-83.73 31.68,-119.29 21.12,-35.56 50.21,-63.36 87.28,-83.41 37.07,-20.04 78.66,-30.06 124.78,-30.06 46.12,0 87.72,10.02 124.78,30.06 37.07,20.05 66.17,47.74 87.29,83.09 21.12,35.34 31.68,75.21 31.68,119.61 0,44.39 -10.56,84.26 -31.68,119.61 -21.12,35.34 -50.22,63.04 -87.29,83.08 -37.06,20.04 -78.66,30.06 -124.78,30.06zm0 -73.7c30.17,0 57.33,-6.79 81.47,-20.37 24.13,-13.58 43.1,-32.54 56.89,-56.89 13.8,-24.36 20.69,-51.62 20.69,-81.79 0,-30.18 -6.89,-57.44 -20.69,-81.79 -13.79,-24.36 -32.76,-43.32 -56.89,-56.9 -24.14,-13.57 -51.3,-20.36 -81.47,-20.36 -30.17,0 -57.32,6.79 -81.46,20.36 -24.14,13.58 -43.1,32.54 -56.9,56.9 -13.79,24.35 -20.69,51.61 -20.69,81.79 0,30.17 6.9,57.43 20.69,81.79 13.8,24.35 32.76,43.31 56.9,56.89 24.14,13.58 51.29,20.37 81.46,20.37zm545.03 73.7c-45.69,0 -86.95,-10.02 -123.81,-30.06 -36.85,-20.04 -65.73,-47.74 -86.63,-83.08 -20.91,-35.35 -31.36,-75.22 -31.36,-119.61 0,-44.4 10.56,-84.27 31.68,-119.61 21.12,-35.35 50.11,-63.04 86.96,-83.09 36.85,-20.04 78.12,-30.06 123.81,-30.06 37.07,0 70.9,6.47 101.51,19.4 30.6,12.93 56.46,31.68 77.58,56.25l-54.31 51.07c-32.75,-35.34 -73.06,-53.01 -120.9,-53.01 -31.04,0 -58.84,6.79 -83.4,20.36 -24.57,13.58 -43.75,32.44 -57.55,56.58 -13.79,24.13 -20.68,51.5 -20.68,82.11 0,30.6 6.89,57.97 20.68,82.11 13.8,24.13 32.98,42.99 57.55,56.57 24.56,13.58 52.36,20.37 83.4,20.37 47.84,0 88.15,-17.89 120.9,-53.67l54.31 51.72c-21.12,24.57 -47.09,43.33 -77.91,56.26 -30.81,12.93 -64.75,19.39 -101.83,19.39zm581.24 -387.92l-150 0 0 381.46 -83.4 0 0 -381.46 -149.35 0 0 -71.12 382.75 0 0 71.12zm281.24 82.11c54.31,0 96.02,12.17 125.11,36.53 29.1,24.35 43.64,60.45 43.64,108.29 0,50 -15.94,88.25 -47.84,114.76 -31.9,26.51 -76.72,39.77 -134.48,39.77l-194.61 0 0 -452.58 82.76 0 0 153.23 125.42 0zm-17.45 234.69c32.76,0 57.97,-7.54 75.64,-22.63 17.67,-15.08 26.51,-37.07 26.51,-65.94 0,-54.75 -34.05,-82.11 -102.15,-82.11l-107.97 0 0 170.68 107.97 0zm659.47 -394.39c44.39,0 84.37,10.02 119.93,30.06 35.56,20.05 63.47,47.74 83.73,83.09 20.26,35.34 30.39,75.21 30.39,119.61 0,44.39 -10.13,84.26 -30.39,119.61 -20.26,35.34 -48.17,63.04 -83.73,83.08 -35.56,20.04 -75.54,30.06 -119.93,30.06 -40.52,0 -77.48,-8.41 -110.88,-25.21 -33.41,-16.82 -60.78,-40.31 -82.12,-70.48 -21.33,-30.17 -34.58,-64.44 -39.76,-102.8l-71.12 0 0 192.03 -82.75 0 0 -452.58 82.75 0 0 185.55 72.42 0c6.03,-37.5 19.72,-70.79 41.05,-99.88 21.34,-29.1 48.49,-51.73 81.47,-67.9 32.97,-16.16 69.28,-24.24 108.94,-24.24zm0 391.81c28.01,0 53.45,-6.69 76.29,-20.05 22.85,-13.36 40.73,-32.11 53.66,-56.25 12.94,-24.13 19.4,-51.72 19.4,-82.75 0,-31.04 -6.46,-58.62 -19.4,-82.76 -12.93,-24.14 -30.81,-42.89 -53.66,-56.25 -22.84,-13.36 -48.28,-20.04 -76.29,-20.04 -28.02,0 -53.34,6.68 -75.97,20.04 -22.63,13.36 -40.52,32.11 -53.66,56.25 -13.15,24.14 -19.72,51.72 -19.72,82.76 0,31.03 6.57,58.62 19.72,82.75 13.14,24.14 31.03,42.89 53.66,56.25 22.63,13.36 47.95,20.05 75.97,20.05z"/>
  </g>
 </g>
</svg>
